<?xml version="1.0" standalone="no"?>
<!DOCTYPE svg PUBLIC "-//W3C//DTD SVG 20010904//EN"
 "http://www.w3.org/TR/2001/REC-SVG-20010904/DTD/svg10.dtd">
<svg version="1.0" xmlns="http://www.w3.org/2000/svg"
 width="35.000000pt" height="20.000000pt" viewBox="0 0 1280.000000 640.000000"
 preserveAspectRatio="xMidYMid meet">

<g transform="translate(0.000000,640.000000) scale(0.100000,-0.100000)"
fill="#FFFFFF" stroke="none">
<path d="M9660 5314 c-198 -25 -496 -98 -533 -132 -11 -9 -23 -27 -28 -39 -6
-16 -17 -23 -34 -23 -42 0 -103 -38 -132 -82 -24 -35 -28 -52 -28 -108 0 -86
30 -136 106 -174 38 -19 48 -27 35 -32 -26 -10 -20 -53 9 -64 36 -14 65 -67
65 -120 0 -67 -27 -103 -108 -144 -75 -38 -92 -61 -92 -129 0 -30 9 -55 30
-86 38 -56 41 -101 6 -101 -13 0 -31 -10 -40 -22 l-16 -23 -16 23 c-15 20 -24
22 -125 22 -108 0 -110 0 -119 -25 -6 -15 -17 -25 -30 -25 -13 0 -24 10 -30
25 -8 22 -15 25 -62 25 -66 0 -190 -20 -378 -59 -209 -44 -413 -71 -586 -78
-190 -7 -200 -5 -214 50 -26 100 -60 127 -163 127 -103 0 -141 -25 -162 -108
-9 -35 -19 -50 -39 -60 -22 -11 -162 -15 -669 -19 -968 -8 -1637 16 -2747 102
-951 73 -1369 90 -2010 81 -256 -4 -540 -12 -631 -19 -157 -11 -167 -13 -198
-39 -40 -34 -46 -34 -92 -2 l-37 25 -248 -66 c-137 -36 -263 -73 -281 -81 -51
-26 -63 -65 -63 -203 0 -138 12 -181 57 -204 27 -14 510 -147 533 -147 7 0 23
9 37 20 34 27 71 25 102 -4 24 -22 39 -25 186 -36 88 -7 390 -14 670 -17 691
-7 1028 7 2010 82 936 72 1717 105 2455 105 449 -1 927 -15 944 -29 8 -6 16
-30 20 -53 5 -28 18 -52 41 -75 l35 -35 91 4 c87 3 92 4 119 34 16 18 31 50
35 72 3 23 12 45 19 51 55 46 523 2 891 -84 61 -14 159 -28 218 -32 104 -6
108 -5 114 15 9 38 56 39 66 1 5 -17 15 -19 120 -19 106 0 115 1 120 20 7 26
23 26 37 0 6 -12 21 -20 35 -20 23 0 25 -4 25 -42 0 -31 -9 -55 -30 -87 -23
-33 -30 -55 -30 -90 0 -60 18 -85 88 -120 82 -42 104 -69 110 -136 5 -61 -16
-107 -59 -129 -30 -14 -37 -46 -14 -62 15 -11 13 -14 -21 -29 -160 -67 -165
-284 -9 -356 22 -10 49 -19 60 -19 13 0 24 -10 31 -29 14 -34 68 -57 243 -101
200 -50 316 -64 531 -64 256 0 420 24 667 100 79 23 123 53 123 81 0 7 10 13
22 13 39 0 109 42 138 82 73 101 32 247 -81 292 -37 15 -40 18 -24 30 24 17
15 48 -19 64 -36 18 -70 92 -62 135 12 58 44 95 111 126 101 48 124 123 65
211 l-30 45 0 425 0 425 30 44 c22 32 30 56 30 87 0 54 -25 85 -105 127 -73
39 -111 100 -99 161 8 43 38 84 70 96 28 11 31 36 8 61 -14 16 -13 18 20 29
62 20 126 112 126 180 0 86 -90 190 -164 190 -18 0 -30 9 -41 30 -20 38 -45
51 -180 89 -200 58 -316 73 -565 76 -124 2 -241 1 -260 -1z"/>
<path d="M8530 2587 c0 -20 236 -250 249 -243 22 14 9 34 -102 144 -103 103
-147 132 -147 99z"/>
<path d="M11252 2487 c-61 -62 -112 -118 -112 -124 0 -37 33 -15 141 93 65 65
119 124 119 131 0 34 -45 3 -148 -100z"/>
<path d="M11272 2204 c-77 -53 -95 -75 -72 -89 15 -9 179 107 180 128 0 28
-21 20 -108 -39z"/>
<path d="M8630 2223 c0 -23 164 -127 186 -119 27 10 10 30 -76 84 -90 56 -110
62 -110 35z"/>
<path d="M7723 2005 c-100 -27 -196 -112 -229 -203 -10 -26 -21 -51 -26 -57
-5 -5 -42 -15 -83 -21 -180 -28 -324 -149 -371 -310 -46 -160 6 -289 131 -323
56 -15 5453 -15 5508 0 59 16 114 71 134 135 14 46 15 65 6 120 -35 203 -182
346 -388 378 l-79 12 -21 50 c-30 76 -71 129 -128 168 -104 71 59 66 -2287 65
-1786 0 -2123 -3 -2167 -14z"/>
</g>
</svg>
